<<<<<<< HEAD
<mxfile host="app.diagrams.net" modified="2023-04-29T09:40:22.006Z" agent="Mozilla/5.0 (Windows NT 10.0; Win64; x64) AppleWebKit/537.36 (KHTML, like Gecko) Chrome/110.0.0.0 YaBrowser/23.3.3.719 Yowser/2.5 Safari/537.36" etag="3lUGu1IbwAbs-aU1m6lV" version="21.2.3" type="device" pages="2">
  <diagram name="Страница 1" id="drtcYwn3P-LWYUr5O4Oh">
    <mxGraphModel dx="1055" dy="582" grid="1" gridSize="10" guides="1" tooltips="1" connect="1" arrows="1" fold="1" page="1" pageScale="1" pageWidth="827" pageHeight="1169" math="0" shadow="0">
      <root>
        <mxCell id="0" />
        <mxCell id="1" parent="0" />
        <mxCell id="uPi53nhsUSufer0ADwjF-38" style="edgeStyle=orthogonalEdgeStyle;rounded=0;orthogonalLoop=1;jettySize=auto;html=1;entryX=0.5;entryY=1;entryDx=0;entryDy=0;endArrow=open;endFill=0;" edge="1" parent="1" source="Q0PooS4uhR3XBJYIxuWS-17" target="uPi53nhsUSufer0ADwjF-11">
          <mxGeometry relative="1" as="geometry">
            <Array as="points">
              <mxPoint x="354" y="250" />
            </Array>
          </mxGeometry>
        </mxCell>
        <mxCell id="Q0PooS4uhR3XBJYIxuWS-17" value="Data Base" style="shape=datastore;whiteSpace=wrap;html=1;" parent="1" vertex="1">
          <mxGeometry x="50" y="180" width="80" height="80" as="geometry" />
        </mxCell>
        <mxCell id="uPi53nhsUSufer0ADwjF-2" value="" style="group" vertex="1" connectable="0" parent="1">
          <mxGeometry x="499" y="100" width="120" height="80" as="geometry" />
        </mxCell>
        <mxCell id="Q0PooS4uhR3XBJYIxuWS-49" value="" style="group" parent="uPi53nhsUSufer0ADwjF-2" vertex="1" connectable="0">
          <mxGeometry y="20" width="120" height="60" as="geometry" />
        </mxCell>
        <mxCell id="Q0PooS4uhR3XBJYIxuWS-34" value="" style="ellipse;whiteSpace=wrap;html=1;aspect=fixed;" parent="Q0PooS4uhR3XBJYIxuWS-49" vertex="1">
          <mxGeometry x="100" y="45" width="10" height="10" as="geometry" />
        </mxCell>
        <mxCell id="Q0PooS4uhR3XBJYIxuWS-35" value="" style="ellipse;whiteSpace=wrap;html=1;aspect=fixed;" parent="Q0PooS4uhR3XBJYIxuWS-49" vertex="1">
          <mxGeometry x="87" y="45" width="10" height="10" as="geometry" />
        </mxCell>
        <mxCell id="Q0PooS4uhR3XBJYIxuWS-36" value="" style="ellipse;whiteSpace=wrap;html=1;aspect=fixed;" parent="Q0PooS4uhR3XBJYIxuWS-49" vertex="1">
          <mxGeometry x="74" y="45" width="10" height="10" as="geometry" />
        </mxCell>
        <mxCell id="Q0PooS4uhR3XBJYIxuWS-37" value="" style="ellipse;whiteSpace=wrap;html=1;aspect=fixed;" parent="Q0PooS4uhR3XBJYIxuWS-49" vertex="1">
          <mxGeometry x="61" y="45" width="10" height="10" as="geometry" />
        </mxCell>
        <mxCell id="uPi53nhsUSufer0ADwjF-1" value="" style="group" vertex="1" connectable="0" parent="Q0PooS4uhR3XBJYIxuWS-49">
          <mxGeometry width="120" height="60" as="geometry" />
        </mxCell>
        <mxCell id="Q0PooS4uhR3XBJYIxuWS-6" value="" style="rounded=0;whiteSpace=wrap;html=1;" parent="uPi53nhsUSufer0ADwjF-1" vertex="1">
          <mxGeometry width="120" height="60" as="geometry" />
        </mxCell>
        <mxCell id="Q0PooS4uhR3XBJYIxuWS-38" value="" style="rounded=0;whiteSpace=wrap;html=1;" parent="uPi53nhsUSufer0ADwjF-1" vertex="1">
          <mxGeometry x="10" y="12" width="39" height="20" as="geometry" />
        </mxCell>
        <mxCell id="Q0PooS4uhR3XBJYIxuWS-39" value="" style="endArrow=none;html=1;rounded=0;" parent="uPi53nhsUSufer0ADwjF-1" edge="1">
          <mxGeometry width="50" height="50" relative="1" as="geometry">
            <mxPoint x="71" y="12" as="sourcePoint" />
            <mxPoint x="101" y="12" as="targetPoint" />
          </mxGeometry>
        </mxCell>
        <mxCell id="Q0PooS4uhR3XBJYIxuWS-40" value="" style="endArrow=none;html=1;rounded=0;" parent="uPi53nhsUSufer0ADwjF-1" edge="1">
          <mxGeometry width="50" height="50" relative="1" as="geometry">
            <mxPoint x="71" y="21.879999999999995" as="sourcePoint" />
            <mxPoint x="101" y="21.879999999999995" as="targetPoint" />
          </mxGeometry>
        </mxCell>
        <mxCell id="Q0PooS4uhR3XBJYIxuWS-41" value="" style="endArrow=none;html=1;rounded=0;" parent="uPi53nhsUSufer0ADwjF-1" edge="1">
          <mxGeometry width="50" height="50" relative="1" as="geometry">
            <mxPoint x="71" y="32" as="sourcePoint" />
            <mxPoint x="101" y="32" as="targetPoint" />
          </mxGeometry>
        </mxCell>
        <mxCell id="Q0PooS4uhR3XBJYIxuWS-51" value="E7-30" style="text;html=1;strokeColor=none;fillColor=none;align=center;verticalAlign=middle;whiteSpace=wrap;rounded=0;" parent="uPi53nhsUSufer0ADwjF-2" vertex="1">
          <mxGeometry x="30" width="60" height="30" as="geometry" />
        </mxCell>
        <mxCell id="uPi53nhsUSufer0ADwjF-5" value="" style="group" vertex="1" connectable="0" parent="1">
          <mxGeometry x="494.5" y="320" width="129" height="90" as="geometry" />
        </mxCell>
        <mxCell id="Q0PooS4uhR3XBJYIxuWS-67" value="" style="rounded=0;whiteSpace=wrap;html=1;" parent="uPi53nhsUSufer0ADwjF-5" vertex="1">
          <mxGeometry y="30" width="120" height="60" as="geometry" />
        </mxCell>
        <mxCell id="Q0PooS4uhR3XBJYIxuWS-68" value="" style="rounded=0;whiteSpace=wrap;html=1;" parent="uPi53nhsUSufer0ADwjF-5" vertex="1">
          <mxGeometry x="80" y="50" width="19" height="20" as="geometry" />
        </mxCell>
        <mxCell id="Q0PooS4uhR3XBJYIxuWS-69" value="" style="endArrow=none;html=1;rounded=0;strokeWidth=2;" parent="uPi53nhsUSufer0ADwjF-5" edge="1">
          <mxGeometry width="50" height="50" relative="1" as="geometry">
            <mxPoint x="9" y="40" as="sourcePoint" />
            <mxPoint x="99" y="40" as="targetPoint" />
          </mxGeometry>
        </mxCell>
        <mxCell id="Q0PooS4uhR3XBJYIxuWS-70" value="" style="endArrow=none;html=1;rounded=0;strokeWidth=2;" parent="uPi53nhsUSufer0ADwjF-5" edge="1">
          <mxGeometry width="50" height="50" relative="1" as="geometry">
            <mxPoint x="9" y="80" as="sourcePoint" />
            <mxPoint x="50" y="80" as="targetPoint" />
          </mxGeometry>
        </mxCell>
        <mxCell id="Q0PooS4uhR3XBJYIxuWS-71" value="" style="endArrow=none;html=1;rounded=0;strokeWidth=2;" parent="uPi53nhsUSufer0ADwjF-5" edge="1">
          <mxGeometry width="50" height="50" relative="1" as="geometry">
            <mxPoint x="58" y="80" as="sourcePoint" />
            <mxPoint x="99" y="80" as="targetPoint" />
          </mxGeometry>
        </mxCell>
        <mxCell id="Q0PooS4uhR3XBJYIxuWS-72" value="" style="rounded=0;whiteSpace=wrap;html=1;fillColor=#000000;" parent="uPi53nhsUSufer0ADwjF-5" vertex="1">
          <mxGeometry x="110" y="40" width="19" height="10" as="geometry" />
        </mxCell>
        <mxCell id="Q0PooS4uhR3XBJYIxuWS-73" value="" style="rounded=0;whiteSpace=wrap;html=1;" parent="uPi53nhsUSufer0ADwjF-5" vertex="1">
          <mxGeometry x="20" y="55" width="20" height="10" as="geometry" />
        </mxCell>
        <mxCell id="Q0PooS4uhR3XBJYIxuWS-74" value="Arduino" style="text;html=1;strokeColor=none;fillColor=none;align=center;verticalAlign=middle;whiteSpace=wrap;rounded=0;" parent="uPi53nhsUSufer0ADwjF-5" vertex="1">
          <mxGeometry width="60" height="30" as="geometry" />
        </mxCell>
        <mxCell id="uPi53nhsUSufer0ADwjF-7" value="" style="group" vertex="1" connectable="0" parent="1">
          <mxGeometry x="120" y="310" width="120" height="90" as="geometry" />
        </mxCell>
        <mxCell id="Q0PooS4uhR3XBJYIxuWS-54" value="Web application" style="text;html=1;strokeColor=none;fillColor=none;align=center;verticalAlign=middle;whiteSpace=wrap;rounded=0;" parent="uPi53nhsUSufer0ADwjF-7" vertex="1">
          <mxGeometry x="34" width="60" height="30" as="geometry" />
        </mxCell>
        <mxCell id="Q0PooS4uhR3XBJYIxuWS-55" value="" style="group" parent="uPi53nhsUSufer0ADwjF-7" vertex="1" connectable="0">
          <mxGeometry y="30" width="120" height="60" as="geometry" />
        </mxCell>
        <mxCell id="Q0PooS4uhR3XBJYIxuWS-56" value="" style="rounded=0;whiteSpace=wrap;html=1;" parent="Q0PooS4uhR3XBJYIxuWS-55" vertex="1">
          <mxGeometry width="120" height="60" as="geometry" />
        </mxCell>
        <mxCell id="Q0PooS4uhR3XBJYIxuWS-57" value="" style="endArrow=none;html=1;rounded=0;entryX=1;entryY=0.25;entryDx=0;entryDy=0;exitX=0;exitY=0.25;exitDx=0;exitDy=0;" parent="Q0PooS4uhR3XBJYIxuWS-55" source="Q0PooS4uhR3XBJYIxuWS-56" target="Q0PooS4uhR3XBJYIxuWS-56" edge="1">
          <mxGeometry width="50" height="50" relative="1" as="geometry">
            <mxPoint x="-30" y="100" as="sourcePoint" />
            <mxPoint x="20" y="50" as="targetPoint" />
          </mxGeometry>
        </mxCell>
        <mxCell id="Q0PooS4uhR3XBJYIxuWS-58" value="" style="endArrow=none;html=1;rounded=0;" parent="Q0PooS4uhR3XBJYIxuWS-55" edge="1">
          <mxGeometry width="50" height="50" relative="1" as="geometry">
            <mxPoint x="10" y="23" as="sourcePoint" />
            <mxPoint x="50" y="23" as="targetPoint" />
          </mxGeometry>
        </mxCell>
        <mxCell id="Q0PooS4uhR3XBJYIxuWS-59" value="" style="endArrow=none;html=1;rounded=0;" parent="Q0PooS4uhR3XBJYIxuWS-55" edge="1">
          <mxGeometry width="50" height="50" relative="1" as="geometry">
            <mxPoint x="10" y="32.86" as="sourcePoint" />
            <mxPoint x="60" y="32.86" as="targetPoint" />
          </mxGeometry>
        </mxCell>
        <mxCell id="Q0PooS4uhR3XBJYIxuWS-60" value="" style="endArrow=none;html=1;rounded=0;" parent="Q0PooS4uhR3XBJYIxuWS-55" edge="1">
          <mxGeometry width="50" height="50" relative="1" as="geometry">
            <mxPoint x="10" y="43" as="sourcePoint" />
            <mxPoint x="50" y="43" as="targetPoint" />
          </mxGeometry>
        </mxCell>
        <mxCell id="Q0PooS4uhR3XBJYIxuWS-61" value="" style="endArrow=none;html=1;rounded=0;" parent="Q0PooS4uhR3XBJYIxuWS-55" edge="1">
          <mxGeometry width="50" height="50" relative="1" as="geometry">
            <mxPoint x="10" y="52" as="sourcePoint" />
            <mxPoint x="40" y="52" as="targetPoint" />
          </mxGeometry>
        </mxCell>
        <mxCell id="Q0PooS4uhR3XBJYIxuWS-62" value="" style="group" parent="Q0PooS4uhR3XBJYIxuWS-55" vertex="1" connectable="0">
          <mxGeometry x="107" y="2" width="10" height="10" as="geometry" />
        </mxCell>
        <mxCell id="Q0PooS4uhR3XBJYIxuWS-63" value="" style="endArrow=none;html=1;rounded=0;" parent="Q0PooS4uhR3XBJYIxuWS-62" edge="1">
          <mxGeometry width="50" height="50" relative="1" as="geometry">
            <mxPoint x="10" y="10" as="sourcePoint" />
            <mxPoint as="targetPoint" />
            <Array as="points">
              <mxPoint x="10" y="10" />
            </Array>
          </mxGeometry>
        </mxCell>
        <mxCell id="Q0PooS4uhR3XBJYIxuWS-64" value="" style="endArrow=none;html=1;rounded=0;" parent="Q0PooS4uhR3XBJYIxuWS-62" edge="1">
          <mxGeometry width="50" height="50" relative="1" as="geometry">
            <mxPoint x="10" as="sourcePoint" />
            <mxPoint y="10" as="targetPoint" />
            <Array as="points" />
          </mxGeometry>
        </mxCell>
        <mxCell id="Q0PooS4uhR3XBJYIxuWS-65" value="" style="rounded=0;whiteSpace=wrap;html=1;" parent="Q0PooS4uhR3XBJYIxuWS-55" vertex="1">
          <mxGeometry x="87" y="20" width="20" height="25" as="geometry" />
        </mxCell>
        <mxCell id="Q0PooS4uhR3XBJYIxuWS-66" value="" style="ellipse;whiteSpace=wrap;html=1;" parent="Q0PooS4uhR3XBJYIxuWS-55" vertex="1">
          <mxGeometry x="92" y="2" width="10" height="10" as="geometry" />
        </mxCell>
        <mxCell id="uPi53nhsUSufer0ADwjF-8" value="" style="group" vertex="1" connectable="0" parent="1">
          <mxGeometry x="120" y="50" width="120" height="90" as="geometry" />
        </mxCell>
        <mxCell id="Q0PooS4uhR3XBJYIxuWS-50" value="" style="group" parent="uPi53nhsUSufer0ADwjF-8" vertex="1" connectable="0">
          <mxGeometry y="30" width="120" height="60" as="geometry" />
        </mxCell>
        <mxCell id="Q0PooS4uhR3XBJYIxuWS-1" value="" style="rounded=0;whiteSpace=wrap;html=1;" parent="Q0PooS4uhR3XBJYIxuWS-50" vertex="1">
          <mxGeometry width="120" height="60" as="geometry" />
        </mxCell>
        <mxCell id="Q0PooS4uhR3XBJYIxuWS-20" value="" style="endArrow=none;html=1;rounded=0;entryX=1;entryY=0.25;entryDx=0;entryDy=0;exitX=0;exitY=0.25;exitDx=0;exitDy=0;" parent="Q0PooS4uhR3XBJYIxuWS-50" source="Q0PooS4uhR3XBJYIxuWS-1" target="Q0PooS4uhR3XBJYIxuWS-1" edge="1">
          <mxGeometry width="50" height="50" relative="1" as="geometry">
            <mxPoint x="-30" y="100" as="sourcePoint" />
            <mxPoint x="20" y="50" as="targetPoint" />
          </mxGeometry>
        </mxCell>
        <mxCell id="Q0PooS4uhR3XBJYIxuWS-21" value="" style="endArrow=none;html=1;rounded=0;" parent="Q0PooS4uhR3XBJYIxuWS-50" edge="1">
          <mxGeometry width="50" height="50" relative="1" as="geometry">
            <mxPoint x="10" y="23" as="sourcePoint" />
            <mxPoint x="50" y="23" as="targetPoint" />
          </mxGeometry>
        </mxCell>
        <mxCell id="Q0PooS4uhR3XBJYIxuWS-22" value="" style="endArrow=none;html=1;rounded=0;" parent="Q0PooS4uhR3XBJYIxuWS-50" edge="1">
          <mxGeometry width="50" height="50" relative="1" as="geometry">
            <mxPoint x="10" y="32.86" as="sourcePoint" />
            <mxPoint x="60" y="32.86" as="targetPoint" />
          </mxGeometry>
        </mxCell>
        <mxCell id="Q0PooS4uhR3XBJYIxuWS-23" value="" style="endArrow=none;html=1;rounded=0;" parent="Q0PooS4uhR3XBJYIxuWS-50" edge="1">
          <mxGeometry width="50" height="50" relative="1" as="geometry">
            <mxPoint x="10" y="43" as="sourcePoint" />
            <mxPoint x="50" y="43" as="targetPoint" />
          </mxGeometry>
        </mxCell>
        <mxCell id="Q0PooS4uhR3XBJYIxuWS-24" value="" style="endArrow=none;html=1;rounded=0;" parent="Q0PooS4uhR3XBJYIxuWS-50" edge="1">
          <mxGeometry width="50" height="50" relative="1" as="geometry">
            <mxPoint x="10" y="52" as="sourcePoint" />
            <mxPoint x="40" y="52" as="targetPoint" />
          </mxGeometry>
        </mxCell>
        <mxCell id="Q0PooS4uhR3XBJYIxuWS-27" value="" style="group" parent="Q0PooS4uhR3XBJYIxuWS-50" vertex="1" connectable="0">
          <mxGeometry x="107" y="2" width="10" height="10" as="geometry" />
        </mxCell>
        <mxCell id="Q0PooS4uhR3XBJYIxuWS-25" value="" style="endArrow=none;html=1;rounded=0;" parent="Q0PooS4uhR3XBJYIxuWS-27" edge="1">
          <mxGeometry width="50" height="50" relative="1" as="geometry">
            <mxPoint x="10" y="10" as="sourcePoint" />
            <mxPoint as="targetPoint" />
            <Array as="points">
              <mxPoint x="10" y="10" />
            </Array>
          </mxGeometry>
        </mxCell>
        <mxCell id="Q0PooS4uhR3XBJYIxuWS-26" value="" style="endArrow=none;html=1;rounded=0;" parent="Q0PooS4uhR3XBJYIxuWS-27" edge="1">
          <mxGeometry width="50" height="50" relative="1" as="geometry">
            <mxPoint x="10" as="sourcePoint" />
            <mxPoint y="10" as="targetPoint" />
            <Array as="points" />
          </mxGeometry>
        </mxCell>
        <mxCell id="Q0PooS4uhR3XBJYIxuWS-32" value="" style="rounded=0;whiteSpace=wrap;html=1;" parent="Q0PooS4uhR3XBJYIxuWS-50" vertex="1">
          <mxGeometry x="87" y="20" width="20" height="25" as="geometry" />
        </mxCell>
        <mxCell id="Q0PooS4uhR3XBJYIxuWS-33" value="" style="ellipse;whiteSpace=wrap;html=1;" parent="Q0PooS4uhR3XBJYIxuWS-50" vertex="1">
          <mxGeometry x="92" y="2" width="10" height="10" as="geometry" />
        </mxCell>
        <mxCell id="Q0PooS4uhR3XBJYIxuWS-52" value="Desktop&lt;br&gt;&amp;nbsp;application" style="text;html=1;strokeColor=none;fillColor=none;align=center;verticalAlign=middle;whiteSpace=wrap;rounded=0;" parent="uPi53nhsUSufer0ADwjF-8" vertex="1">
          <mxGeometry x="30" width="60" height="30" as="geometry" />
        </mxCell>
        <mxCell id="uPi53nhsUSufer0ADwjF-18" style="edgeStyle=orthogonalEdgeStyle;rounded=0;orthogonalLoop=1;jettySize=auto;html=1;entryX=0.5;entryY=0;entryDx=0;entryDy=0;endArrow=open;endFill=0;" edge="1" parent="1" source="uPi53nhsUSufer0ADwjF-10" target="uPi53nhsUSufer0ADwjF-11">
          <mxGeometry relative="1" as="geometry" />
        </mxCell>
        <mxCell id="uPi53nhsUSufer0ADwjF-22" style="edgeStyle=orthogonalEdgeStyle;rounded=0;orthogonalLoop=1;jettySize=auto;html=1;entryX=1;entryY=0.75;entryDx=0;entryDy=0;exitX=0.097;exitY=0.502;exitDx=0;exitDy=0;exitPerimeter=0;endArrow=open;endFill=0;" edge="1" parent="1" source="uPi53nhsUSufer0ADwjF-10" target="Q0PooS4uhR3XBJYIxuWS-1">
          <mxGeometry relative="1" as="geometry">
            <Array as="points">
              <mxPoint x="280" y="75" />
              <mxPoint x="280" y="125" />
            </Array>
          </mxGeometry>
        </mxCell>
        <mxCell id="uPi53nhsUSufer0ADwjF-10" value="collection module desktop&lt;br&gt;" style="shape=module;align=left;spacingLeft=20;align=center;verticalAlign=top;whiteSpace=wrap;html=1;" vertex="1" parent="1">
          <mxGeometry x="304" y="50" width="100" height="50" as="geometry" />
        </mxCell>
        <mxCell id="uPi53nhsUSufer0ADwjF-19" style="edgeStyle=orthogonalEdgeStyle;rounded=0;orthogonalLoop=1;jettySize=auto;html=1;entryX=0;entryY=0.75;entryDx=0;entryDy=0;endArrow=open;endFill=0;" edge="1" parent="1" source="uPi53nhsUSufer0ADwjF-11" target="Q0PooS4uhR3XBJYIxuWS-6">
          <mxGeometry relative="1" as="geometry" />
        </mxCell>
        <mxCell id="uPi53nhsUSufer0ADwjF-21" style="edgeStyle=orthogonalEdgeStyle;rounded=0;orthogonalLoop=1;jettySize=auto;html=1;entryX=0.706;entryY=1.072;entryDx=0;entryDy=0;entryPerimeter=0;endArrow=open;endFill=0;" edge="1" parent="1" source="uPi53nhsUSufer0ADwjF-11" target="uPi53nhsUSufer0ADwjF-10">
          <mxGeometry relative="1" as="geometry">
            <Array as="points">
              <mxPoint x="375" y="120" />
            </Array>
          </mxGeometry>
        </mxCell>
        <mxCell id="uPi53nhsUSufer0ADwjF-26" style="edgeStyle=orthogonalEdgeStyle;rounded=0;orthogonalLoop=1;jettySize=auto;html=1;entryX=1;entryY=0.5;entryDx=0;entryDy=0;exitX=0.108;exitY=0.506;exitDx=0;exitDy=0;exitPerimeter=0;endArrow=open;endFill=0;" edge="1" parent="1" source="uPi53nhsUSufer0ADwjF-11" target="Q0PooS4uhR3XBJYIxuWS-17">
          <mxGeometry relative="1" as="geometry" />
        </mxCell>
        <mxCell id="uPi53nhsUSufer0ADwjF-11" value="processing module&lt;br&gt;desktop&lt;br&gt;" style="shape=module;align=left;spacingLeft=20;align=center;verticalAlign=top;whiteSpace=wrap;html=1;" vertex="1" parent="1">
          <mxGeometry x="304" y="140" width="100" height="50" as="geometry" />
        </mxCell>
        <mxCell id="uPi53nhsUSufer0ADwjF-29" style="edgeStyle=orthogonalEdgeStyle;rounded=0;orthogonalLoop=1;jettySize=auto;html=1;entryX=0.5;entryY=0;entryDx=0;entryDy=0;endArrow=open;endFill=0;" edge="1" parent="1" source="uPi53nhsUSufer0ADwjF-13" target="uPi53nhsUSufer0ADwjF-14">
          <mxGeometry relative="1" as="geometry" />
        </mxCell>
        <mxCell id="uPi53nhsUSufer0ADwjF-39" style="edgeStyle=orthogonalEdgeStyle;rounded=0;orthogonalLoop=1;jettySize=auto;html=1;entryX=0.182;entryY=-0.008;entryDx=0;entryDy=0;entryPerimeter=0;endArrow=open;endFill=0;" edge="1" parent="1" source="uPi53nhsUSufer0ADwjF-13" target="Q0PooS4uhR3XBJYIxuWS-56">
          <mxGeometry relative="1" as="geometry">
            <Array as="points">
              <mxPoint x="370" y="270" />
              <mxPoint x="142" y="270" />
            </Array>
          </mxGeometry>
        </mxCell>
        <mxCell id="uPi53nhsUSufer0ADwjF-13" value="collection module web" style="shape=module;align=left;spacingLeft=20;align=center;verticalAlign=top;whiteSpace=wrap;html=1;" vertex="1" parent="1">
          <mxGeometry x="304" y="300" width="100" height="50" as="geometry" />
        </mxCell>
        <mxCell id="uPi53nhsUSufer0ADwjF-30" style="edgeStyle=orthogonalEdgeStyle;rounded=0;orthogonalLoop=1;jettySize=auto;html=1;entryX=0;entryY=0.5;entryDx=0;entryDy=0;endArrow=open;endFill=0;" edge="1" parent="1" source="uPi53nhsUSufer0ADwjF-14" target="Q0PooS4uhR3XBJYIxuWS-67">
          <mxGeometry relative="1" as="geometry" />
        </mxCell>
        <mxCell id="uPi53nhsUSufer0ADwjF-32" style="edgeStyle=orthogonalEdgeStyle;rounded=0;orthogonalLoop=1;jettySize=auto;html=1;entryX=0.75;entryY=1;entryDx=0;entryDy=0;endArrow=open;endFill=0;" edge="1" parent="1" source="uPi53nhsUSufer0ADwjF-14" target="uPi53nhsUSufer0ADwjF-13">
          <mxGeometry relative="1" as="geometry">
            <Array as="points">
              <mxPoint x="379" y="380" />
              <mxPoint x="379" y="380" />
            </Array>
          </mxGeometry>
        </mxCell>
        <mxCell id="uPi53nhsUSufer0ADwjF-36" style="edgeStyle=orthogonalEdgeStyle;rounded=0;orthogonalLoop=1;jettySize=auto;html=1;entryX=0.168;entryY=0.977;entryDx=0;entryDy=0;entryPerimeter=0;endArrow=open;endFill=0;exitX=0.098;exitY=0.506;exitDx=0;exitDy=0;exitPerimeter=0;" edge="1" parent="1" source="uPi53nhsUSufer0ADwjF-14" target="Q0PooS4uhR3XBJYIxuWS-17">
          <mxGeometry relative="1" as="geometry" />
        </mxCell>
        <mxCell id="uPi53nhsUSufer0ADwjF-14" value="processing module&lt;br&gt;web&lt;br&gt;" style="shape=module;align=left;spacingLeft=20;align=center;verticalAlign=top;whiteSpace=wrap;html=1;" vertex="1" parent="1">
          <mxGeometry x="304" y="390" width="100" height="50" as="geometry" />
        </mxCell>
        <mxCell id="uPi53nhsUSufer0ADwjF-16" style="edgeStyle=orthogonalEdgeStyle;rounded=0;orthogonalLoop=1;jettySize=auto;html=1;entryX=0.5;entryY=0;entryDx=0;entryDy=0;endArrow=open;endFill=0;" edge="1" parent="1" source="Q0PooS4uhR3XBJYIxuWS-32" target="uPi53nhsUSufer0ADwjF-10">
          <mxGeometry relative="1" as="geometry" />
        </mxCell>
        <mxCell id="uPi53nhsUSufer0ADwjF-20" style="edgeStyle=orthogonalEdgeStyle;rounded=0;orthogonalLoop=1;jettySize=auto;html=1;entryX=1;entryY=0.25;entryDx=0;entryDy=0;endArrow=open;endFill=0;" edge="1" parent="1" source="Q0PooS4uhR3XBJYIxuWS-6" target="uPi53nhsUSufer0ADwjF-11">
          <mxGeometry relative="1" as="geometry">
            <mxPoint x="410" y="150" as="targetPoint" />
            <Array as="points">
              <mxPoint x="452" y="140" />
              <mxPoint x="452" y="153" />
              <mxPoint x="420" y="153" />
            </Array>
          </mxGeometry>
        </mxCell>
        <mxCell id="uPi53nhsUSufer0ADwjF-25" style="edgeStyle=orthogonalEdgeStyle;rounded=0;orthogonalLoop=1;jettySize=auto;html=1;entryX=0.5;entryY=0;entryDx=0;entryDy=0;endArrow=open;endFill=0;" edge="1" parent="1" source="Q0PooS4uhR3XBJYIxuWS-56" target="uPi53nhsUSufer0ADwjF-13">
          <mxGeometry relative="1" as="geometry" />
        </mxCell>
        <mxCell id="uPi53nhsUSufer0ADwjF-31" style="edgeStyle=orthogonalEdgeStyle;rounded=0;orthogonalLoop=1;jettySize=auto;html=1;entryX=0.553;entryY=0.981;entryDx=0;entryDy=0;entryPerimeter=0;endArrow=open;endFill=0;" edge="1" parent="1" source="Q0PooS4uhR3XBJYIxuWS-67" target="uPi53nhsUSufer0ADwjF-14">
          <mxGeometry relative="1" as="geometry">
            <Array as="points">
              <mxPoint x="560" y="460" />
              <mxPoint x="359" y="460" />
            </Array>
          </mxGeometry>
        </mxCell>
        <mxCell id="uPi53nhsUSufer0ADwjF-33" style="edgeStyle=orthogonalEdgeStyle;rounded=0;orthogonalLoop=1;jettySize=auto;html=1;entryX=0.46;entryY=1.006;entryDx=0;entryDy=0;entryPerimeter=0;endArrow=open;endFill=0;" edge="1" parent="1" source="Q0PooS4uhR3XBJYIxuWS-67" target="Q0PooS4uhR3XBJYIxuWS-6">
          <mxGeometry relative="1" as="geometry" />
        </mxCell>
        <mxCell id="uPi53nhsUSufer0ADwjF-35" style="edgeStyle=orthogonalEdgeStyle;rounded=0;orthogonalLoop=1;jettySize=auto;html=1;entryX=0.75;entryY=0;entryDx=0;entryDy=0;endArrow=open;endFill=0;" edge="1" parent="1" target="Q0PooS4uhR3XBJYIxuWS-67">
          <mxGeometry relative="1" as="geometry">
            <mxPoint x="580" y="180" as="sourcePoint" />
            <mxPoint x="620" y="380" as="targetPoint" />
            <Array as="points">
              <mxPoint x="585" y="180" />
              <mxPoint x="585" y="310" />
              <mxPoint x="585" y="310" />
            </Array>
          </mxGeometry>
        </mxCell>
      </root>
    </mxGraphModel>
  </diagram>
  <diagram id="rOhZ1MMs6XCdx2ytlZqW" name="Страница 2">
    <mxGraphModel dx="1002" dy="553" grid="1" gridSize="10" guides="1" tooltips="1" connect="1" arrows="1" fold="1" page="1" pageScale="1" pageWidth="827" pageHeight="1169" math="0" shadow="0">
      <root>
        <mxCell id="0" />
        <mxCell id="1" parent="0" />
      </root>
    </mxGraphModel>
  </diagram>
</mxfile>
=======
<mxfile host="Electron" modified="2023-04-18T05:39:46.135Z" agent="5.0 (Windows NT 10.0; Win64; x64) AppleWebKit/537.36 (KHTML, like Gecko) draw.io/20.8.16 Chrome/106.0.5249.199 Electron/21.4.0 Safari/537.36" etag="0CwrseaBYZ-fVwM-oMNk" version="20.8.16" type="device"><diagram name="Страница 1" id="lpDK1pxn1RSsiu7UW4YT">7Vxbc6O4Ev41fvQWd+NHYzuzW5U5Z87J2ZrZpy1iFJsdjDxYzmV//dEVJCFsyIDtmXVSRaARQurur9XdajJy59vXD0W823yECchGjpW8jtzFyHFs27LxH0J5Y5SJ5zLCukgT3qgiPKR/A060OPWQJmCvNEQQZijdqcQVzHOwQgotLgr4ojZ7gpn61l28BjXCwyrO6tTPaYI2jBo6k4r+K0jXG/FmO5iyO9tYNOYz2W/iBL5IJHc5cucFhIidbV/nICPME3xhz9013P34Z/HqByiIDuHM+rb51+y3l1/HtsfH9RxnBz6D0cIaTT1yjHx6nI0W9ii06ZHejZb0eCemVIAcfccQwvoQnCDDPUb7XZwTTqA3zt7g24FMP3qCORrvqfBnuIHt7LACRdV9fLbmf2lHjyWBTG5BjxY5zmx6ZJOm05rSNrO51JLRffwienJHG7DzsHqENwt44+rxUDzOxoL586iPD9PYXAXZUabtPIMCpVjJZlm6zjEJwR1uFvOrDDxRbm3iHWm/OjwCcsmwgYHhRklaYGVPIWm9hweiaZSHD/wVpM0GbTPSnrALHvIEJPePgoAHt0rz9T190cLHlCx+BFkUr76uC9J4DjNY4Fs5zIHom73fsfm1aJKAp/iQVdOU9eeEkmIugFcJZ1zNPgC4Bah4w034Xd/y2CNvqnV4qSBZ0jYSHEtizM3Auuy60mt8wlW7AYf/+d3+8vFDZt0nSyv797f885dsPDUouSZkWSC2JN4VZg/AnIvMWrDapFlyH79hsRLpIiwTcRVtYJH+jbuNhSArwgNpyEVfAKIsn4QgbI30MX5VGt7He8QJ27hYp3kEEYJbThpOql5gKVJ1vLpY7YlBrN5QUhXqoplPZlWI+cQmkxqKyFEozJJEzMpGlHhHifjElW5ZokFpjBfSkZlhl58LU1fIti66k1p6wpyXL13S46TWfyiGpKmoZCN046NYCK9RW/eogF+Bbi7SLNNIhrXlGKxO69DldMQ+DX1hurcwORBa9BdA6E04ENSEU0rpOnjtWVTqaGuc2XVUBQZbyfstQBaj9Fn1f0xc5O/7BFM83vJlY8dXQD1VO4BPT3uAakIoB91KLmYD5BgcD7JSzyTQhSo0qAfUh9cTBO80HH282+DzmfwkNhjmynB3x1EoRofm6j2XlutTKaHWsHG01cngdLgmp6M0R99jeoxzmDQsT67q0Ze6xpaJac3fd/hi1Iu/73rGQakr1VhdqvpBosEQm17MJj84DN0BPMJtmiR0/bh+p1AIozW8XA1evsH5c0zwcoaCl0GRuUlM0mdj3NocoTaGuo9ljDVeMReJRLxpnqKUCNDQ5WdAzHG8JYY2f9zvjsWZvb9cIKoETihhmGEs4FByrPGJcWEy5aRKvShzVSeZzaPTHK7Ioz5qlrp51OcFnn82j/oo7m8OtcoWkz3UxJKlVBeZzpbSMCushofGtY4D5X8EDYtx3elzK8p/ObcJqYAoRvFj6UXSjNYnuE+5t1mwttGOsJcyz49G/oJSCjSHOZ5EnFJFAXjtewH7Djmt9irEpeg67Va7cCjImb02HiwtFbdMdygjNYtReVDH7WDp5VzIEnaXUdBORu5gdtEU2d0Q2I90g0sjsJ6u+PD7bz8lkIKWQBqM14EhcL4BqSfpTlsGboMJt54H4PvQPyGUpl5LKAUDcbspy2rzfeYmxz3BGr1HsCDMedmkCDxgjpMbL0W8U5N+dd51Ti6U6X+RXZjUffbAwLZgsKV8WuMMSNZAZIMwbDdwDfM4W1bUqGDZT24F/jpsd3wTNsCX1SP3kNoXW8RAvFF8QFBlLHhN0Rfp/A/S8y8+v1qIBBC9eBMXOZ7+F/lCeopcVo/RK/FcWe5g1VAzwh5TSH6N5naP4gLNSOkG4csO5IJ2lxKW81clWgtMUe9LnMIPrwH6BIoUyxIUDwzqvGkS7zeUxUc1bw8PxQocky/XfPauFvgh0j+qya3Dxu/SS9ttsZ0lsXsTZ0/ztFhR/ZRUS1VVRfgNpQVV3cD+K0CrTaOq0B/zymwsQ+ggfA1SAh+Wgg/nFEBkzXu/Bnkt9UKyYL7Bgvn9ZB1sX0/PTn+ZBlb146k9sunxTuTUudavp6V9Xb1Cg8tL7wjrX/wmNeOuT/P4teGH1tFhac0963hzfRZae3zCxtvvBqfIGbSEKvdEfjaQquvDM83r1teH9y1ajeiVzfrRXfkrge9JmLXG60StvHL1JHBPeNUHLDyxQREVGvbsGnYQL7rF6gyxt/hDV5uF7bc1+N0g1BTMVGzmGRDZRyFRg1jrOdjlZOyKcjJWaBqxaq55bQc7lLTNl2rA5uRxc/FYKHU1r3ViSUlfW1bfa97eqrDRbYPrzJK+8A5XpWq3PS6NMYbCrX7Dny6xb+8BjRoVvyP872iP5SjnR/CTAq8nPynQa5n1TFKDn9SfIrfYKzoaHJxQ2jNG4e/NOLUIDE6GOSqQO2r/yeRPaYevRf1PaW1b9Z9YExVHrt1K/buGCcHkAmGC7beME8qa/LN8aGWqOf5Jo4LWXyfZTqNBausq+Z1DC99WY+TAEFkYC4XFt5D9O5ymmvCF+IItso4GsyKMqCrjlmplXP2TlBbVgYY6u4vFFudUpw5156f0Zbj4JDB9s9lHfHJWTnf+AO0fEuOIT5L/0dUPV4r5cgOh3ZIxVA2Fbfi05NLVSFcusbCdxATqBxCZc4P1lSvJxL00rM2RC/8ucVbz3O7kL7FuuDeINDQ4DWfG/W05v3YlsS1DxetZgR/W13MaALKgzJaAbwkKC9nKkHAimYXZzSA0y1pE/yctwnQwYXer4eIlc0rl2zVUiZyWYh9J5SqP/MdITiO3SSo3ViMerQA7nmf68ZLGjpruKkvFOieNPa2jabs9k65J44lWyyYGPGzSWHhRN1B23+nxnROwpFflS64Iq2LdvRKsupa+v6mlnNtiVf8PXI41DFbd0DzgpnHp7YUNeSe28WX1H/lY8+r/GrrL/wM=</diagram></mxfile>
>>>>>>> 42db894f9e9451fae002229458be4cb7795cc2bb
